<svg version="1.1" id="Layer_1" xmlns="http://www.w3.org/2000/svg" xmlns:xlink="http://www.w3.org/1999/xlink" x="0px" y="0px"
	 width="100%" viewBox="0 0 1500 1000" enable-background="new 0 0 1500 1000" xml:space="preserve">
<path fill="none" opacity="1.000000" stroke="none" 
	d="
M828.000000,1001.000000 
	C552.000000,1001.000000 276.500000,1001.000000 1.000000,1001.000000 
	C1.000000,667.666687 1.000000,334.333344 1.000000,1.000000 
	C501.000000,1.000000 1001.000000,1.000000 1501.000000,1.000000 
	C1501.000000,334.333344 1501.000000,667.666687 1501.000000,1001.000000 
	C1276.833374,1001.000000 1052.666626,1001.000000 828.000000,1001.000000 
M866.075562,507.029968 
	C861.588562,507.020782 857.037537,506.526520 852.628357,507.107727 
	C844.523254,508.176086 841.445862,510.814636 841.967834,518.731506 
	C842.321533,524.095520 846.026855,527.000854 853.033508,526.991882 
	C855.356934,526.988953 857.680237,526.891174 860.931580,526.972412 
	C872.955872,526.926270 884.980225,526.880066 897.869141,526.970093 
	C901.248169,526.482056 901.026733,528.705872 901.020691,530.978455 
	C900.980530,545.960754 900.973694,560.943359 901.011108,575.925720 
	C901.029541,583.315063 904.500000,587.039124 911.160889,586.999390 
	C917.604797,586.960938 920.996216,583.235596 920.997253,576.139832 
	C921.002991,538.017822 921.047729,499.895691 920.915405,461.774170 
	C920.903992,458.479492 919.701782,455.188965 919.008667,451.096649 
	C916.117920,430.714966 895.508118,409.989960 873.574341,405.219940 
	C870.486816,404.813385 867.410767,404.228088 864.309937,404.030243 
	C848.299133,403.008606 833.713135,406.959106 821.042908,417.010345 
	C807.513855,427.742798 798.710754,441.783600 798.260010,458.963867 
	C797.377563,492.599274 797.990112,526.274170 798.009216,559.932739 
	C798.012756,566.184448 801.775391,570.054321 807.643372,569.998779 
	C813.401978,569.944275 816.946472,566.030579 817.006409,559.794250 
	C817.324646,526.701111 817.359802,493.600769 818.153687,460.518768 
	C818.463379,447.611542 826.279541,438.288727 836.372131,430.944885 
	C845.543762,424.271240 856.072693,423.273926 867.384766,424.762817 
	C886.140747,428.139099 900.858032,445.663177 901.000305,464.101654 
	C901.056641,471.401978 901.110901,478.702301 901.030945,486.930450 
	C901.005127,493.583496 900.979370,500.236572 900.026306,506.980530 
	C889.018799,507.041382 878.011292,507.102234 866.075562,507.029968 
M956.031860,707.929382 
	C956.020813,724.892639 955.994019,741.855957 956.006775,758.819214 
	C956.011475,765.112793 959.571655,768.886719 965.491394,769.003052 
	C971.934448,769.129639 975.932068,765.736450 975.947388,759.304810 
	C976.016479,730.204590 975.889648,701.103943 975.971069,671.074463 
	C975.925781,653.048279 975.880493,635.022095 975.971924,616.068115 
	C975.925903,579.379944 975.879822,542.691833 975.970093,505.074402 
	C975.924255,471.384918 975.878418,437.695404 975.968445,403.076752 
	C975.923401,367.051636 975.878418,331.026550 975.967712,294.072388 
	C975.978210,278.115570 976.041199,262.158539 975.971069,246.202087 
	C975.946228,240.547943 971.564514,236.126770 966.232666,236.001450 
	C960.950745,235.877304 956.054565,240.278519 956.046326,245.735199 
	C956.004028,273.822540 956.111755,301.910095 956.031311,330.926331 
	C956.076599,367.284454 956.121887,403.642578 956.032776,440.929291 
	C956.077148,474.285706 956.121521,507.642120 956.031006,541.927185 
	C956.075623,578.615540 956.120239,615.303955 956.031433,652.923157 
	C956.076477,670.949097 956.121582,688.975037 956.031860,707.929382 
M475.026581,527.924255 
	C475.017914,545.206360 474.968536,562.488647 475.025116,579.770569 
	C475.042297,585.015869 479.349365,589.036743 484.572754,588.994568 
	C489.649323,588.953674 493.953522,585.169678 493.957733,580.232849 
	C493.982361,551.488220 493.887970,522.743408 493.969452,493.070374 
	C493.979797,470.596069 494.013733,448.121765 493.984375,425.647522 
	C493.976746,419.824341 491.027191,417.063354 485.045197,416.997253 
	C478.955475,416.929993 475.026917,419.959076 475.026764,425.121643 
	C475.025787,459.079559 475.109772,493.037506 475.026581,527.924255 
M529.026978,321.925415 
	C529.073486,351.281982 529.119995,380.638580 529.027527,410.924133 
	C529.073792,439.281586 529.119995,467.639069 529.028015,496.925110 
	C529.074341,528.282288 529.120667,559.639404 529.028809,591.925110 
	C529.074890,630.281921 529.121033,668.638733 529.029663,707.924744 
	C529.019836,723.887390 528.954712,739.850464 529.056152,755.812378 
	C529.072510,758.388855 529.575439,761.034973 530.302185,763.517517 
	C531.467041,767.496521 536.085083,769.672852 541.184387,768.987366 
	C545.091675,768.462036 548.982422,764.500244 548.979736,760.780579 
	C548.957886,730.853821 548.887878,700.927124 548.968079,670.071899 
	C548.922974,632.048035 548.877930,594.024231 548.967712,555.071472 
	C548.922974,523.381409 548.878235,491.691376 548.969055,459.072327 
	C548.923828,430.714447 548.878601,402.356567 548.968872,373.070374 
	C548.923645,344.047058 548.878479,315.023743 548.968872,285.071594 
	C548.979126,271.949646 548.967834,258.827667 549.012146,245.705826 
	C549.026428,241.482925 547.343140,238.475433 543.272583,236.982559 
	C535.731018,234.216766 529.130493,238.907547 529.074036,247.756805 
	C528.918335,272.169037 529.111389,296.583496 529.026978,321.925415 
M1011.032959,483.929474 
	C1011.020752,515.575745 1010.993835,547.221985 1011.040710,578.868225 
	C1011.043030,580.422974 1011.381958,582.137390 1012.093689,583.501160 
	C1014.308350,587.744995 1018.209167,589.398743 1022.678345,588.594055 
	C1027.805176,587.670959 1030.905273,583.417236 1030.976807,577.911499 
	C1031.085083,569.584900 1031.014648,561.255920 1031.002075,552.927917 
	C1030.949219,517.953674 1030.889526,482.979462 1030.970093,447.075897 
	C1030.979736,440.432739 1031.092773,433.787720 1030.970337,427.146973 
	C1030.846069,420.400024 1027.063599,416.861084 1020.454163,417.002441 
	C1014.567627,417.128357 1011.003052,420.920135 1011.012268,427.208221 
	C1011.039551,445.805878 1011.112610,464.403442 1011.032959,483.929474 
M762.968384,467.070038 
	C762.651001,458.837677 762.692078,450.569885 761.883423,442.386078 
	C761.387878,437.372284 757.211792,435.456787 750.428894,436.005280 
	C746.143555,436.351807 743.027832,439.619659 743.026733,444.185608 
	C743.022095,464.121490 743.111084,484.057404 743.030579,504.922638 
	C743.020386,514.417114 743.002991,523.911621 743.001465,533.406128 
	C742.997375,558.891602 742.986267,584.377136 743.009277,609.862610 
	C743.015381,616.602356 746.343445,620.024780 752.703552,620.000000 
	C759.507507,619.973572 762.936401,616.241089 762.975342,608.408142 
	C763.054932,592.417664 763.017883,576.426453 762.996155,560.435547 
	C762.954163,529.623169 762.889404,498.810760 762.968384,467.070038 
M603.968140,402.070862 
	C603.978638,391.762848 603.995911,381.454834 603.997375,371.146820 
	C603.998413,364.064941 601.344788,361.070343 595.041321,360.999359 
	C587.734436,360.917114 584.056519,364.112946 584.038574,371.158356 
	C583.985962,391.770966 584.111145,412.384064 584.028259,433.925476 
	C584.073975,463.949799 584.119690,493.974152 584.028076,524.927185 
	C584.018616,531.592712 584.003723,538.258301 584.000916,544.923828 
	C583.996521,555.255615 583.667847,565.601562 584.106812,575.914673 
	C584.453003,584.049255 588.443909,587.297913 593.813843,587.067993 
	C599.781738,586.812500 603.960815,583.533691 603.964722,577.978333 
	C603.984863,549.652710 603.889526,521.327148 603.969360,492.072784 
	C603.969360,469.495483 603.969360,446.918152 603.969360,423.832458 
	C618.085449,423.832458 631.540833,423.832458 645.879578,423.969116 
	C648.318054,424.183746 650.800476,424.176605 653.187744,424.649780 
	C666.492371,427.286530 675.877686,435.397034 683.152161,447.193146 
	C684.768005,453.151550 687.536377,459.062164 687.785706,465.077271 
	C688.566833,483.916351 676.236938,501.871399 656.783142,507.990051 
	C650.561035,509.947052 647.850830,517.192017 651.310913,522.654663 
	C663.813293,542.393127 676.372986,562.095520 688.969727,581.773926 
	C692.471008,587.243469 699.161682,588.862305 703.875488,585.580933 
	C708.564392,582.316772 709.108154,576.648010 705.406189,570.805176 
	C695.276428,554.817261 685.186768,538.804016 674.754395,522.283264 
	C676.718201,521.095398 678.693115,520.026001 680.528931,518.755554 
	C682.415588,517.449951 684.292542,516.081787 685.957275,514.511536 
	C704.221985,497.282623 711.782959,476.566559 705.945618,451.708862 
	C703.881165,442.917877 700.526733,434.634857 693.815063,427.326996 
	C692.734863,425.910461 691.788025,424.363922 690.553406,423.097931 
	C680.446838,412.734375 668.139893,406.686310 653.039673,404.119202 
	C638.323364,404.079132 623.606750,404.070801 608.891052,403.955688 
	C607.202759,403.942474 605.519104,403.332764 603.968140,402.070862 
M435.816071,534.645691 
	C437.208649,531.943542 439.739258,529.269165 439.806061,526.534729 
	C440.191437,510.758270 440.178650,494.964447 439.908020,479.183228 
	C439.793213,472.489014 435.131897,468.676361 428.726379,468.998688 
	C423.275177,469.273041 420.001984,473.354248 419.999664,479.914551 
	C419.994354,494.869598 420.440277,509.841919 419.854462,524.773926 
	C419.421753,535.803467 427.553040,537.877258 435.816071,534.645691 
M1086.000732,513.492432 
	C1085.999878,502.342010 1086.108765,491.190094 1085.958740,480.041656 
	C1085.862793,472.909515 1081.617065,468.809326 1075.038574,469.005157 
	C1069.286011,469.176392 1066.008911,473.210144 1066.006226,480.148438 
	C1066.000366,495.625885 1065.993164,511.103302 1066.005249,526.580750 
	C1066.009521,532.122803 1068.316772,535.333252 1072.685425,535.983032 
	C1079.679199,537.023315 1083.520020,535.275391 1084.878906,529.194885 
	C1085.940063,524.446106 1085.676025,519.401245 1086.000732,513.492432 
M817.000000,598.639648 
	C817.000000,598.140686 817.000183,597.641724 817.000122,597.142761 
	C816.999268,590.154175 813.537964,585.893982 807.582153,586.049072 
	C801.145325,586.216675 797.662476,591.025818 797.856079,597.134888 
	C798.303772,611.258606 797.988525,625.406067 798.004639,639.543945 
	C798.011841,645.870056 801.525879,649.807678 807.261353,649.993103 
	C813.073486,650.180969 816.986755,645.998352 816.994812,639.521301 
	C817.011414,626.215088 816.999939,612.908875 817.000000,598.639648 
M742.999390,388.500061 
	C742.999573,394.990814 742.994995,401.481598 743.001343,407.972351 
	C743.007874,414.615814 746.188904,418.658661 751.663330,418.998779 
	C758.193604,419.404510 762.713013,415.814850 762.893738,408.947235 
	C763.235107,395.974701 763.178406,382.982941 762.905762,370.007141 
	C762.786438,364.328674 757.743896,359.850952 752.698059,360.001221 
	C746.326294,360.190979 743.009705,363.955597 743.001038,371.023651 
	C742.994263,376.515839 742.999451,382.007996 742.999390,388.500061 
M598.305786,343.220032 
	C602.338013,341.359772 604.124817,338.280151 604.042786,333.777405 
	C603.885132,325.124908 604.132080,316.463928 603.904053,307.814575 
	C603.847656,305.675934 603.043213,303.273712 601.832031,301.507507 
	C599.268433,297.769440 595.272888,297.152924 591.204590,298.409546 
	C586.206482,299.953339 584.122681,303.918549 584.035583,308.883820 
	C583.904236,316.371735 583.984863,323.863739 584.004822,331.353943 
	C584.031433,341.308594 587.615234,344.542816 598.305786,343.220032 
M366.907440,518.385071 
	C369.943787,521.786804 373.689209,522.769897 378.003265,521.489380 
	C382.226654,520.235718 384.657593,517.081238 384.899567,512.944336 
	C385.287079,506.318329 385.235870,499.642487 384.932404,493.007782 
	C384.680389,487.497803 379.550934,482.786957 374.734039,483.002197 
	C369.083649,483.254700 365.069916,487.635620 364.996094,493.705536 
	C364.949585,497.527954 364.814789,501.361420 365.034973,505.171692 
	C365.279083,509.395172 365.882355,513.597900 366.907440,518.385071 
M1126.107300,484.407196 
	C1122.343628,486.079651 1120.857178,488.977234 1120.959595,493.070984 
	C1121.122070,499.560028 1120.989868,506.056152 1121.004028,512.549255 
	C1121.016235,518.193359 1124.915161,522.029419 1130.575439,522.001831 
	C1136.151855,521.974609 1139.990601,518.075928 1140.000244,512.403687 
	C1140.010742,506.243530 1140.007935,500.083374 1139.998901,493.923218 
	C1139.986694,485.648132 1134.864502,481.822266 1126.107300,484.407196 
z"/>
<path fill="#8551A1" opacity="1.000000" stroke="none" 
	d="
M866.969971,424.134399 
	C856.072693,423.273926 845.543762,424.271240 836.372131,430.944885 
	C826.279541,438.288727 818.463379,447.611542 818.153687,460.518768 
	C817.359802,493.600769 817.324646,526.701111 817.006409,559.794250 
	C816.946472,566.030579 813.401978,569.944275 807.643372,569.998779 
	C801.775391,570.054321 798.012756,566.184448 798.009216,559.932739 
	C797.990112,526.274170 797.377563,492.599274 798.260010,458.963867 
	C798.710754,441.783600 807.513855,427.742798 821.042908,417.010345 
	C833.713135,406.959106 848.299133,403.008606 864.309937,404.030243 
	C867.410767,404.228088 870.486816,404.813385 873.794189,405.938843 
	C871.666077,412.483337 869.318054,418.308868 866.969971,424.134399 
z"/>
<path fill="#994B94" opacity="1.000000" stroke="none" 
	d="
M694.106018,427.949036 
	C700.526733,434.634857 703.881165,442.917877 705.945618,451.708862 
	C711.782959,476.566559 704.221985,497.282623 685.957275,514.511536 
	C684.292542,516.081787 682.415588,517.449951 680.528931,518.755554 
	C678.693115,520.026001 676.718201,521.095398 674.754395,522.283264 
	C685.186768,538.804016 695.276428,554.817261 705.406189,570.805176 
	C709.108154,576.648010 708.564392,582.316772 703.875488,585.580933 
	C699.161682,588.862305 692.471008,587.243469 688.969727,581.773926 
	C676.372986,562.095520 663.813293,542.393127 651.310913,522.654663 
	C647.850830,517.192017 650.561035,509.947052 656.783142,507.990051 
	C676.236938,501.871399 688.566833,483.916351 687.785706,465.077271 
	C687.536377,459.062164 684.768005,453.151550 683.525269,446.625793 
	C685.578247,443.085327 687.260681,440.113647 688.937439,437.138763 
	C690.663147,434.077118 692.383362,431.012390 694.106018,427.949036 
z"/>
<path fill="#AC4588" opacity="1.000000" stroke="none" 
	d="
M644.996216,423.832458 
	C631.540833,423.832458 618.085449,423.832458 603.969360,423.832458 
	C603.969360,446.918152 603.969360,469.495483 603.568970,492.600586 
	C602.634583,493.718292 601.919434,494.222534 601.593994,494.910980 
	C597.660706,503.232880 593.673157,511.532684 589.958313,519.952271 
	C588.750244,522.690369 587.393250,524.493835 584.165405,523.998474 
	C584.119690,493.974152 584.073975,463.949799 584.438477,433.414886 
	C591.150818,425.200195 596.269409,416.806488 600.069458,407.576874 
	C600.788452,405.830597 602.551819,404.514313 603.833313,402.999634 
	C605.519104,403.332764 607.202759,403.942474 608.891052,403.955688 
	C623.606750,404.070801 638.323364,404.079132 653.070923,404.526611 
	C650.400208,411.233521 647.698242,417.532990 644.996216,423.832458 
z"/>
<path fill="#8551A1" opacity="1.000000" stroke="none" 
	d="
M762.834106,467.998383 
	C762.889404,498.810760 762.954163,529.623169 762.996155,560.435547 
	C763.017883,576.426453 763.054932,592.417664 762.975342,608.408142 
	C762.936401,616.241089 759.507507,619.973572 752.703552,620.000000 
	C746.343445,620.024780 743.015381,616.602356 743.009277,609.862610 
	C742.986267,584.377136 742.997375,558.891602 743.001465,533.406128 
	C743.002991,523.911621 743.020386,514.417114 743.429688,504.396698 
	C744.867493,502.613617 746.225403,501.505402 746.892517,500.075012 
	C751.023071,491.218964 754.931702,482.259338 759.076416,473.410156 
	C759.994629,471.449646 761.564392,469.794281 762.834106,467.998383 
z"/>
<path fill="#407FCD" opacity="1.000000" stroke="none" 
	d="
M1030.832275,448.005249 
	C1030.889526,482.979462 1030.949219,517.953674 1031.002075,552.927917 
	C1031.014648,561.255920 1031.085083,569.584900 1030.976807,577.911499 
	C1030.905273,583.417236 1027.805176,587.670959 1022.678345,588.594055 
	C1018.209167,589.398743 1014.308350,587.744995 1012.093689,583.501160 
	C1011.381958,582.137390 1011.043030,580.422974 1011.040710,578.868225 
	C1010.993835,547.221985 1011.020752,515.575745 1011.433228,483.401184 
	C1012.367615,482.282196 1013.082581,481.776886 1013.408142,481.087646 
	C1017.342224,472.759186 1021.082642,464.335785 1025.183716,456.091431 
	C1026.632080,453.179932 1028.924927,450.688477 1030.832275,448.005249 
z"/>
<path fill="#6863B4" opacity="1.000000" stroke="none" 
	d="
M919.052612,451.896484 
	C919.701782,455.188965 920.903992,458.479492 920.915405,461.774170 
	C921.047729,499.895691 921.002991,538.017822 920.997253,576.139832 
	C920.996216,583.235596 917.604797,586.960938 911.160889,586.999390 
	C904.500000,587.039124 901.029541,583.315063 901.011108,575.925720 
	C900.973694,560.943359 900.980530,545.960754 901.020691,530.978455 
	C901.026733,528.705872 901.248169,526.482056 897.436829,526.519775 
	C898.409851,522.553101 899.741089,519.004761 901.243225,515.530273 
	C902.527222,512.560242 903.779053,509.681946 900.953613,506.889618 
	C900.979370,500.236572 901.005127,493.583496 901.441650,486.418427 
	C903.235107,483.773529 904.855591,481.756287 905.958801,479.487457 
	C910.410095,470.332642 914.701843,461.100250 919.052612,451.896484 
z"/>
<path fill="#AC4588" opacity="1.000000" stroke="none" 
	d="
M548.832886,556.000366 
	C548.877930,594.024231 548.922974,632.048035 548.567383,670.599976 
	C544.434570,678.625122 540.809204,686.177917 536.930969,693.598633 
	C534.542603,698.168579 531.768188,702.536743 529.167114,706.995544 
	C529.121033,668.638733 529.074890,630.281921 529.431335,591.397705 
	C530.841797,589.605896 532.150208,588.480286 532.808594,587.054504 
	C536.880554,578.235901 540.716370,569.307373 544.856750,560.521973 
	C545.678833,558.777588 547.482056,557.495544 548.832886,556.000366 
z"/>
<path fill="#5372C1" opacity="1.000000" stroke="none" 
	d="
M975.833801,506.003662 
	C975.879822,542.691833 975.925903,579.379944 975.561707,616.579712 
	C974.213440,618.162109 972.975525,619.090820 972.388977,620.328308 
	C969.785278,625.821472 967.578491,631.510193 964.823242,636.922058 
	C962.198181,642.078308 959.071167,646.979187 956.164856,651.992310 
	C956.120239,615.303955 956.075623,578.615540 956.431335,541.399414 
	C957.746216,539.533325 958.863586,538.289978 959.540894,536.840881 
	C962.912964,529.626953 965.985229,522.266785 969.548340,515.151062 
	C971.189148,511.874390 973.711304,509.039124 975.833801,506.003662 
z"/>
<path fill="#6863B4" opacity="1.000000" stroke="none" 
	d="
M956.167236,440.000702 
	C956.121887,403.642578 956.076599,367.284454 956.440125,330.415344 
	C957.708923,328.978516 958.862976,328.192596 959.380981,327.104034 
	C962.700928,320.127533 965.731201,313.010010 969.166992,306.092957 
	C971.079712,302.242126 973.591553,298.688843 975.833374,295.001465 
	C975.878418,331.026550 975.923401,367.051636 975.567383,403.604248 
	C974.306152,405.110046 973.158264,405.954742 972.631836,407.088104 
	C968.657715,415.644318 964.899536,424.301697 960.858337,432.825287 
	C959.645447,435.383453 957.750000,437.617920 956.167236,440.000702 
z"/>
<path fill="#596DBD" opacity="1.000000" stroke="none" 
	d="
M956.099976,440.464996 
	C957.750000,437.617920 959.645447,435.383453 960.858337,432.825287 
	C964.899536,424.301697 968.657715,415.644318 972.631836,407.088104 
	C973.158264,405.954742 974.306152,405.110046 975.499451,404.068817 
	C975.878418,437.695404 975.924255,471.384918 975.901978,505.539032 
	C973.711304,509.039124 971.189148,511.874390 969.548340,515.151062 
	C965.985229,522.266785 962.912964,529.626953 959.540894,536.840881 
	C958.863586,538.289978 957.746216,539.533325 956.498779,540.935059 
	C956.121521,507.642120 956.077148,474.285706 956.099976,440.464996 
z"/>
<path fill="#B54382" opacity="1.000000" stroke="none" 
	d="
M548.900269,555.535889 
	C547.482056,557.495544 545.678833,558.777588 544.856750,560.521973 
	C540.716370,569.307373 536.880554,578.235901 532.808594,587.054504 
	C532.150208,588.480286 530.841797,589.605896 529.500427,590.933411 
	C529.120667,559.639404 529.074341,528.282288 529.430176,496.398010 
	C530.744080,494.537964 531.854065,493.298706 532.535156,491.856873 
	C536.914856,482.585541 541.146851,473.244049 545.571411,463.994568 
	C546.292053,462.488068 547.728149,461.323792 548.833496,460.001343 
	C548.878235,491.691376 548.922974,523.381409 548.900269,555.535889 
z"/>
<path fill="#C33E79" opacity="1.000000" stroke="none" 
	d="
M548.833252,286.000427 
	C548.878479,315.023743 548.923645,344.047058 548.553711,373.585144 
	C547.378418,375.085815 546.407104,375.972748 545.891235,377.073212 
	C541.379333,386.697083 537.001587,396.384247 532.439453,405.983917 
	C531.720093,407.497620 530.275635,408.666718 529.166504,409.995148 
	C529.119995,380.638580 529.073486,351.281982 529.444214,321.411987 
	C530.395691,320.539032 531.194641,320.301514 531.424927,319.801880 
	C535.349426,311.286407 539.061035,302.669464 543.150085,294.235077 
	C544.588074,291.268921 546.913208,288.732880 548.833252,286.000427 
z"/>
<path fill="#CB3C74" opacity="1.000000" stroke="none" 
	d="
M475.166016,526.995422 
	C475.109772,493.037506 475.025787,459.079559 475.026764,425.121643 
	C475.026917,419.959076 478.955475,416.929993 485.045197,416.997253 
	C491.027191,417.063354 493.976746,419.824341 493.984375,425.647522 
	C494.013733,448.121765 493.979797,470.596069 493.560028,493.582275 
	C492.286865,495.027527 491.129150,495.821167 490.607971,496.917389 
	C487.625549,503.190247 484.954620,509.615021 481.853302,515.826111 
	C479.920380,519.697083 477.414673,523.282104 475.166016,526.995422 
z"/>
<path fill="#BC407D" opacity="1.000000" stroke="none" 
	d="
M529.097046,410.459656 
	C530.275635,408.666718 531.720093,407.497620 532.439453,405.983917 
	C537.001587,396.384247 541.379333,386.697083 545.891235,377.073212 
	C546.407104,375.972748 547.378418,375.085815 548.485962,374.049286 
	C548.878601,402.356567 548.923828,430.714447 548.901245,459.536835 
	C547.728149,461.323792 546.292053,462.488068 545.571411,463.994568 
	C541.146851,473.244049 536.914856,482.585541 532.535156,491.856873 
	C531.854065,493.298706 530.744080,494.537964 529.499329,495.933716 
	C529.119995,467.639069 529.073792,439.281586 529.097046,410.459656 
z"/>
<path fill="#A4488D" opacity="1.000000" stroke="none" 
	d="
M529.098389,707.460144 
	C531.768188,702.536743 534.542603,698.168579 536.930969,693.598633 
	C540.809204,686.177917 544.434570,678.625122 548.499634,671.064209 
	C548.887878,700.927124 548.957886,730.853821 548.979736,760.780579 
	C548.982422,764.500244 545.091675,768.462036 541.184387,768.987366 
	C536.085083,769.672852 531.467041,767.496521 530.302185,763.517517 
	C529.575439,761.034973 529.072510,758.388855 529.056152,755.812378 
	C528.954712,739.850464 529.019836,723.887390 529.098389,707.460144 
z"/>
<path fill="#407FCD" opacity="1.000000" stroke="none" 
	d="
M975.833374,672.003418 
	C975.889648,701.103943 976.016479,730.204590 975.947388,759.304810 
	C975.932068,765.736450 971.934448,769.129639 965.491394,769.003052 
	C959.571655,768.886719 956.011475,765.112793 956.006775,758.819214 
	C955.994019,741.855957 956.020813,724.892639 956.442200,707.416992 
	C957.715088,705.971680 958.880493,705.180115 959.392395,704.083496 
	C963.655884,694.949951 967.723694,685.724487 972.043762,676.618469 
	C972.871582,674.873535 974.548401,673.531372 975.833374,672.003418 
z"/>
<path fill="#A4488D" opacity="1.000000" stroke="none" 
	d="
M584.096741,524.462830 
	C587.393250,524.493835 588.750244,522.690369 589.958313,519.952271 
	C593.673157,511.532684 597.660706,503.232880 601.593994,494.910980 
	C601.919434,494.222534 602.634583,493.718292 603.501587,493.065002 
	C603.889526,521.327148 603.984863,549.652710 603.964722,577.978333 
	C603.960815,583.533691 599.781738,586.812500 593.813843,587.067993 
	C588.443909,587.297913 584.453003,584.049255 584.106812,575.914673 
	C583.667847,565.601562 583.996521,555.255615 584.000916,544.923828 
	C584.003723,538.258301 584.018616,531.592712 584.096741,524.462830 
z"/>
<path fill="#765AAB" opacity="1.000000" stroke="none" 
	d="
M975.900574,294.536926 
	C973.591553,298.688843 971.079712,302.242126 969.166992,306.092957 
	C965.731201,313.010010 962.700928,320.127533 959.380981,327.104034 
	C958.862976,328.192596 957.708923,328.978516 956.507996,329.950989 
	C956.111755,301.910095 956.004028,273.822540 956.046326,245.735199 
	C956.054565,240.278519 960.950745,235.877304 966.232666,236.001450 
	C971.564514,236.126770 975.946228,240.547943 975.971069,246.202087 
	C976.041199,262.158539 975.978210,278.115570 975.900574,294.536926 
z"/>
<path fill="#765AAB" opacity="1.000000" stroke="none" 
	d="
M919.030640,451.496582 
	C914.701843,461.100250 910.410095,470.332642 905.958801,479.487457 
	C904.855591,481.756287 903.235107,483.773529 901.509277,485.954529 
	C901.110901,478.702301 901.056641,471.401978 901.000305,464.101654 
	C900.858032,445.663177 886.140747,428.139099 867.177368,424.448608 
	C869.318054,418.308868 871.666077,412.483337 874.031494,406.271698 
	C895.508118,409.989960 916.117920,430.714966 919.030640,451.496582 
z"/>
<path fill="#C33E79" opacity="1.000000" stroke="none" 
	d="
M475.096313,527.459839 
	C477.414673,523.282104 479.920380,519.697083 481.853302,515.826111 
	C484.954620,509.615021 487.625549,503.190247 490.607971,496.917389 
	C491.129150,495.821167 492.286865,495.027527 493.492188,494.046387 
	C493.887970,522.743408 493.982361,551.488220 493.957733,580.232849 
	C493.953522,585.169678 489.649323,588.953674 484.572754,588.994568 
	C479.349365,589.036743 475.042297,585.015869 475.025116,579.770569 
	C474.968536,562.488647 475.017914,545.206360 475.096313,527.459839 
z"/>
<path fill="#CB3C74" opacity="1.000000" stroke="none" 
	d="
M548.901062,285.536011 
	C546.913208,288.732880 544.588074,291.268921 543.150085,294.235077 
	C539.061035,302.669464 535.349426,311.286407 531.424927,319.801880 
	C531.194641,320.301514 530.395691,320.539032 529.513916,320.947815 
	C529.111389,296.583496 528.918335,272.169037 529.074036,247.756805 
	C529.130493,238.907547 535.731018,234.216766 543.272583,236.982559 
	C547.343140,238.475433 549.026428,241.482925 549.012146,245.705826 
	C548.967834,258.827667 548.979126,271.949646 548.901062,285.536011 
z"/>
<path fill="#D6396C" opacity="1.000000" stroke="none" 
	d="
M435.446747,534.812744 
	C427.553040,537.877258 419.421753,535.803467 419.854462,524.773926 
	C420.440277,509.841919 419.994354,494.869598 419.999664,479.914551 
	C420.001984,473.354248 423.275177,469.273041 428.726379,468.998688 
	C435.131897,468.676361 439.793213,472.489014 439.908020,479.183228 
	C440.178650,494.964447 440.191437,510.758270 439.806061,526.534729 
	C439.739258,529.269165 437.208649,531.943542 435.446747,534.812744 
z"/>
<path fill="#2A8EDC" opacity="1.000000" stroke="none" 
	d="
M1086.000732,513.990173 
	C1085.676025,519.401245 1085.940063,524.446106 1084.878906,529.194885 
	C1083.520020,535.275391 1079.679199,537.023315 1072.685425,535.983032 
	C1068.316772,535.333252 1066.009521,532.122803 1066.005249,526.580750 
	C1065.993164,511.103302 1066.000366,495.625885 1066.006226,480.148438 
	C1066.008911,473.210144 1069.286011,469.176392 1075.038574,469.005157 
	C1081.617065,468.809326 1085.862793,472.909515 1085.958740,480.041656 
	C1086.108765,491.190094 1085.999878,502.342010 1086.000732,513.990173 
z"/>
<path fill="#765AAB" opacity="1.000000" stroke="none" 
	d="
M817.000000,599.121155 
	C816.999939,612.908875 817.011414,626.215088 816.994812,639.521301 
	C816.986755,645.998352 813.073486,650.180969 807.261353,649.993103 
	C801.525879,649.807678 798.011841,645.870056 798.004639,639.543945 
	C797.988525,625.406067 798.303772,611.258606 797.856079,597.134888 
	C797.662476,591.025818 801.145325,586.216675 807.582153,586.049072 
	C813.537964,585.893982 816.999268,590.154175 817.000122,597.142761 
	C817.000183,597.641724 817.000000,598.140686 817.000000,599.121155 
z"/>
<path fill="#B54382" opacity="1.000000" stroke="none" 
	d="
M603.900757,402.535248 
	C602.551819,404.514313 600.788452,405.830597 600.069458,407.576874 
	C596.269409,416.806488 591.150818,425.200195 584.507690,432.950623 
	C584.111145,412.384064 583.985962,391.770966 584.038574,371.158356 
	C584.056519,364.112946 587.734436,360.917114 595.041321,360.999359 
	C601.344788,361.070343 603.998413,364.064941 603.997375,371.146820 
	C603.995911,381.454834 603.978638,391.762848 603.900757,402.535248 
z"/>
<path fill="#477AC9" opacity="1.000000" stroke="none" 
	d="
M975.902222,671.538940 
	C974.548401,673.531372 972.871582,674.873535 972.043762,676.618469 
	C967.723694,685.724487 963.655884,694.949951 959.392395,704.083496 
	C958.880493,705.180115 957.715088,705.971680 956.509583,706.952820 
	C956.121582,688.975037 956.076477,670.949097 956.098145,652.457764 
	C959.071167,646.979187 962.198181,642.078308 964.823242,636.922058 
	C967.578491,631.510193 969.785278,625.821472 972.388977,620.328308 
	C972.975525,619.090820 974.213440,618.162109 975.493347,617.043579 
	C975.880493,635.022095 975.925781,653.048279 975.902222,671.538940 
z"/>
<path fill="#994B94" opacity="1.000000" stroke="none" 
	d="
M742.999390,388.000122 
	C742.999451,382.007996 742.994263,376.515839 743.001038,371.023651 
	C743.009705,363.955597 746.326294,360.190979 752.698059,360.001221 
	C757.743896,359.850952 762.786438,364.328674 762.905762,370.007141 
	C763.178406,382.982941 763.235107,395.974701 762.893738,408.947235 
	C762.713013,415.814850 758.193604,419.404510 751.663330,418.998779 
	C746.188904,418.658661 743.007874,414.615814 743.001343,407.972351 
	C742.994995,401.481598 742.999573,394.990814 742.999390,388.000122 
z"/>
<path fill="#994B94" opacity="1.000000" stroke="none" 
	d="
M762.901245,467.534210 
	C761.564392,469.794281 759.994629,471.449646 759.076416,473.410156 
	C754.931702,482.259338 751.023071,491.218964 746.892517,500.075012 
	C746.225403,501.505402 744.867493,502.613617 743.497437,503.932007 
	C743.111084,484.057404 743.022095,464.121490 743.026733,444.185608 
	C743.027832,439.619659 746.143555,436.351807 750.428894,436.005280 
	C757.211792,435.456787 761.387878,437.372284 761.883423,442.386078 
	C762.692078,450.569885 762.651001,458.837677 762.901245,467.534210 
z"/>
<path fill="#A4488D" opacity="1.000000" stroke="none" 
	d="
M645.437866,423.900787 
	C647.698242,417.532990 650.400208,411.233521 653.477539,404.760651 
	C668.139893,406.686310 680.446838,412.734375 690.553406,423.097931 
	C691.788025,424.363922 692.734863,425.910461 693.960571,427.638000 
	C692.383362,431.012390 690.663147,434.077118 688.937439,437.138763 
	C687.260681,440.113647 685.578247,443.085327 683.520630,446.225983 
	C675.877686,435.397034 666.492371,427.286530 653.187744,424.649780 
	C650.800476,424.176605 648.318054,424.183746 645.437866,423.900787 
z"/>
<path fill="#477AC9" opacity="1.000000" stroke="none" 
	d="
M1030.901123,447.540558 
	C1028.924927,450.688477 1026.632080,453.179932 1025.183716,456.091431 
	C1021.082642,464.335785 1017.342224,472.759186 1013.408142,481.087646 
	C1013.082581,481.776886 1012.367615,482.282196 1011.500610,482.937012 
	C1011.112610,464.403442 1011.039551,445.805878 1011.012268,427.208221 
	C1011.003052,420.920135 1014.567627,417.128357 1020.454163,417.002441 
	C1027.063599,416.861084 1030.846069,420.400024 1030.970337,427.146973 
	C1031.092773,433.787720 1030.979736,440.432739 1030.901123,447.540558 
z"/>
<path fill="#BC407D" opacity="1.000000" stroke="none" 
	d="
M597.995300,343.482635 
	C587.615234,344.542816 584.031433,341.308594 584.004822,331.353943 
	C583.984863,323.863739 583.904236,316.371735 584.035583,308.883820 
	C584.122681,303.918549 586.206482,299.953339 591.204590,298.409546 
	C595.272888,297.152924 599.268433,297.769440 601.832031,301.507507 
	C603.043213,303.273712 603.847656,305.675934 603.904053,307.814575 
	C604.132080,316.463928 603.885132,325.124908 604.042786,333.777405 
	C604.124817,338.280151 602.338013,341.359772 597.995300,343.482635 
z"/>
<path fill="#765AAB" opacity="1.000000" stroke="none" 
	d="
M900.489990,506.935059 
	C903.779053,509.681946 902.527222,512.560242 901.243225,515.530273 
	C899.741089,519.004761 898.409851,522.553101 897.004517,526.451660 
	C884.980225,526.880066 872.955872,526.926270 860.467773,526.520691 
	C860.518677,524.350586 860.929138,522.592285 861.567932,520.921387 
	C863.328796,516.315735 865.185181,511.746643 867.003784,507.163116 
	C878.011292,507.102234 889.018799,507.041382 900.489990,506.935059 
z"/>
<path fill="#D6396C" opacity="1.000000" stroke="none" 
	d="
M366.618347,518.097351 
	C365.882355,513.597900 365.279083,509.395172 365.034973,505.171692 
	C364.814789,501.361420 364.949585,497.527954 364.996094,493.705536 
	C365.069916,487.635620 369.083649,483.254700 374.734039,483.002197 
	C379.550934,482.786957 384.680389,487.497803 384.932404,493.007782 
	C385.235870,499.642487 385.287079,506.318329 384.899567,512.944336 
	C384.657593,517.081238 382.226654,520.235718 378.003265,521.489380 
	C373.689209,522.769897 369.943787,521.786804 366.618347,518.097351 
z"/>
<path fill="#1A99E6" opacity="1.000000" stroke="none" 
	d="
M1126.464233,484.238464 
	C1134.864502,481.822266 1139.986694,485.648132 1139.998901,493.923218 
	C1140.007935,500.083374 1140.010742,506.243530 1140.000244,512.403687 
	C1139.990601,518.075928 1136.151855,521.974609 1130.575439,522.001831 
	C1124.915161,522.029419 1121.016235,518.193359 1121.004028,512.549255 
	C1120.989868,506.056152 1121.122070,499.560028 1120.959595,493.070984 
	C1120.857178,488.977234 1122.343628,486.079651 1126.464233,484.238464 
z"/>
<path fill="#8551A1" opacity="1.000000" stroke="none" 
	d="
M866.539673,507.096558 
	C865.185181,511.746643 863.328796,516.315735 861.567932,520.921387 
	C860.929138,522.592285 860.518677,524.350586 860.003784,526.452881 
	C857.680237,526.891174 855.356934,526.988953 853.033508,526.991882 
	C846.026855,527.000854 842.321533,524.095520 841.967834,518.731506 
	C841.445862,510.814636 844.523254,508.176086 852.628357,507.107727 
	C857.037537,506.526520 861.588562,507.020782 866.539673,507.096558 
z"/>
</svg>